<svg width="59" height="38" viewBox="0 0 59 38" fill="none" xmlns="http://www.w3.org/2000/svg">
<path d="M15.912 0.959999V18H13.2V10.488H4.608V18H1.92V0.959999H4.608V8.088H13.2V0.959999H15.912ZM23.2539 18.18C22.2699 18.18 21.4119 17.958 20.6799 17.514C19.9599 17.058 19.4019 16.464 19.0059 15.732C18.6099 14.988 18.4119 14.178 18.4119 13.302C18.4119 12.426 18.6099 11.622 19.0059 10.89C19.4139 10.146 19.9779 9.552 20.6979 9.108C21.4299 8.652 22.2819 8.424 23.2539 8.424C24.2259 8.424 25.0719 8.652 25.7919 9.108C26.5239 9.552 27.0879 10.146 27.4839 10.89C27.8919 11.622 28.0959 12.426 28.0959 13.302C28.0959 14.178 27.8979 14.988 27.5019 15.732C27.1059 16.464 26.5419 17.058 25.8099 17.514C25.0899 17.958 24.2379 18.18 23.2539 18.18ZM20.4459 13.32C20.4459 13.92 20.5719 14.46 20.8239 14.94C21.0759 15.42 21.4119 15.798 21.8319 16.074C22.2519 16.35 22.7259 16.488 23.2539 16.488C23.7699 16.488 24.2379 16.35 24.6579 16.074C25.0899 15.786 25.4319 15.402 25.6839 14.922C25.9359 14.442 26.0619 13.902 26.0619 13.302C26.0619 12.702 25.9359 12.162 25.6839 11.682C25.4319 11.202 25.0899 10.824 24.6579 10.548C24.2379 10.26 23.7699 10.116 23.2539 10.116C22.7379 10.116 22.2639 10.26 21.8319 10.548C21.4119 10.824 21.0759 11.208 20.8239 11.7C20.5719 12.18 20.4459 12.72 20.4459 13.32ZM44.2521 18H42.2721V12.726C42.2721 11.862 42.1281 11.226 41.8401 10.818C41.5521 10.398 41.1321 10.188 40.5801 10.188C40.0281 10.188 39.5121 10.398 39.0321 10.818C38.5641 11.226 38.2341 11.76 38.0421 12.42V18H36.0621V12.726C36.0621 11.838 35.9181 11.196 35.6301 10.8C35.3421 10.392 34.9281 10.188 34.3881 10.188C33.8361 10.188 33.3201 10.392 32.8401 10.8C32.3721 11.208 32.0361 11.742 31.8321 12.402V18H29.8521V8.586H31.6521V10.476C32.0121 9.816 32.4981 9.312 33.1101 8.964C33.7221 8.604 34.4181 8.424 35.1981 8.424C35.9781 8.424 36.5901 8.628 37.0341 9.036C37.4901 9.444 37.7721 9.954 37.8801 10.566C38.6961 9.138 39.8781 8.424 41.4261 8.424C42.1701 8.424 42.7461 8.604 43.1541 8.964C43.5621 9.312 43.8441 9.78 44.0001 10.368C44.1681 10.944 44.2521 11.574 44.2521 12.258V18ZM50.7997 18.18C49.8277 18.18 48.9757 17.958 48.2437 17.514C47.5117 17.07 46.9417 16.482 46.5337 15.75C46.1257 15.006 45.9217 14.196 45.9217 13.32C45.9217 12.432 46.1257 11.616 46.5337 10.872C46.9417 10.128 47.5117 9.534 48.2437 9.09C48.9757 8.646 49.8337 8.424 50.8177 8.424C51.8017 8.424 52.6537 8.652 53.3737 9.108C54.0937 9.552 54.6457 10.14 55.0297 10.872C55.4257 11.604 55.6237 12.39 55.6237 13.23C55.6237 13.53 55.6057 13.77 55.5697 13.95H48.0277C48.0637 14.502 48.2137 14.988 48.4777 15.408C48.7537 15.816 49.0957 16.14 49.5037 16.38C49.9237 16.608 50.3797 16.722 50.8717 16.722C51.3997 16.722 51.8977 16.59 52.3657 16.326C52.8337 16.062 53.1577 15.714 53.3377 15.282L55.0297 15.768C54.7057 16.476 54.1657 17.058 53.4097 17.514C52.6657 17.958 51.7957 18.18 50.7997 18.18ZM47.9737 12.636H53.6617C53.6137 12.096 53.4577 11.622 53.1937 11.214C52.9297 10.794 52.5877 10.47 52.1677 10.242C51.7597 10.002 51.3037 9.882 50.7997 9.882C50.3077 9.882 49.8517 10.002 49.4317 10.242C49.0237 10.47 48.6877 10.794 48.4237 11.214C48.1597 11.622 48.0097 12.096 47.9737 12.636ZM12 23.968C11.792 23.728 11.448 23.48 10.968 23.224C10.504 22.952 9.96 22.72 9.336 22.528C8.712 22.336 8.064 22.24 7.392 22.24C6.256 22.24 5.416 22.448 4.872 22.864C4.344 23.28 4.08 23.856 4.08 24.592C4.08 25.136 4.232 25.568 4.536 25.888C4.84 26.192 5.304 26.456 5.928 26.68C6.552 26.888 7.336 27.104 8.28 27.328C9.432 27.6 10.424 27.928 11.256 28.312C12.104 28.68 12.752 29.176 13.2 29.8C13.664 30.424 13.896 31.248 13.896 32.272C13.896 33.44 13.616 34.384 13.056 35.104C12.496 35.824 11.736 36.352 10.776 36.688C9.832 37.008 8.792 37.168 7.656 37.168C6.36 37.168 5.104 36.968 3.888 36.568C2.672 36.168 1.584 35.6 0.624 34.864L1.848 32.56C2.12 32.832 2.552 33.144 3.144 33.496C3.736 33.832 4.424 34.128 5.208 34.384C6.008 34.624 6.84 34.744 7.704 34.744C8.76 34.744 9.576 34.56 10.152 34.192C10.728 33.808 11.016 33.264 11.016 32.56C11.016 31.984 10.824 31.528 10.44 31.192C10.072 30.84 9.536 30.552 8.832 30.328C8.144 30.088 7.312 29.84 6.336 29.584C5.216 29.296 4.28 28.968 3.528 28.6C2.776 28.232 2.208 27.768 1.824 27.208C1.456 26.648 1.272 25.92 1.272 25.024C1.272 23.904 1.544 22.96 2.088 22.192C2.632 21.408 3.368 20.824 4.296 20.44C5.24 20.04 6.296 19.84 7.464 19.84C8.616 19.84 9.68 20.024 10.656 20.392C11.632 20.76 12.488 21.216 13.224 21.76L12 23.968ZM21.0979 36.514C20.8459 36.634 20.4979 36.772 20.0539 36.928C19.6099 37.072 19.1359 37.144 18.6319 37.144C18.0079 37.144 17.4679 36.976 17.0119 36.64C16.5679 36.304 16.3459 35.758 16.3459 35.002V29.116H15.1039V27.586H16.3459V24.49H18.3259V27.586H20.3779V29.116H18.3259V34.372C18.3499 34.708 18.4519 34.954 18.6319 35.11C18.8239 35.254 19.0579 35.326 19.3339 35.326C19.6099 35.326 19.8739 35.278 20.1259 35.182C20.3779 35.086 20.5639 35.008 20.6839 34.948L21.0979 36.514ZM22.3793 33.346V27.586H24.3593V32.95C24.3593 34.642 24.9593 35.488 26.1593 35.488C26.7233 35.488 27.2573 35.314 27.7613 34.966C28.2653 34.606 28.6553 34.102 28.9313 33.454V27.586H30.9113V34.768C30.9113 34.996 30.9533 35.158 31.0373 35.254C31.1213 35.35 31.2593 35.404 31.4512 35.416V37C31.2473 37.036 31.0793 37.06 30.9473 37.072C30.8153 37.084 30.6893 37.09 30.5693 37.09C30.2093 37.09 29.9093 36.994 29.6693 36.802C29.4293 36.61 29.2913 36.352 29.2553 36.028L29.2193 35.092C28.7993 35.776 28.2533 36.298 27.5813 36.658C26.9093 37.006 26.1713 37.18 25.3673 37.18C24.3833 37.18 23.6393 36.856 23.1353 36.208C22.6313 35.56 22.3793 34.606 22.3793 33.346ZM32.844 32.302C32.844 31.402 33.024 30.586 33.384 29.854C33.756 29.11 34.26 28.522 34.896 28.09C35.532 27.646 36.264 27.424 37.092 27.424C37.812 27.424 38.46 27.61 39.036 27.982C39.624 28.354 40.08 28.816 40.404 29.368V23.86H42.384V34.768C42.384 34.996 42.426 35.158 42.51 35.254C42.594 35.35 42.732 35.404 42.924 35.416V37C42.552 37.06 42.264 37.09 42.06 37.09C41.688 37.09 41.37 36.988 41.106 36.784C40.854 36.568 40.722 36.304 40.71 35.992L40.692 35.29C40.332 35.89 39.846 36.358 39.234 36.694C38.622 37.018 37.986 37.18 37.326 37.18C36.462 37.18 35.688 36.958 35.004 36.514C34.332 36.07 33.804 35.482 33.42 34.75C33.036 34.006 32.844 33.19 32.844 32.302ZM40.404 33.616V31.15C40.26 30.766 40.044 30.424 39.756 30.124C39.468 29.812 39.138 29.566 38.766 29.386C38.406 29.206 38.046 29.116 37.686 29.116C37.122 29.116 36.63 29.272 36.21 29.584C35.802 29.884 35.478 30.28 35.238 30.772C35.01 31.264 34.896 31.786 34.896 32.338C34.896 32.914 35.022 33.442 35.274 33.922C35.538 34.402 35.892 34.786 36.336 35.074C36.78 35.35 37.278 35.488 37.83 35.488C38.166 35.488 38.514 35.41 38.874 35.254C39.246 35.086 39.57 34.864 39.846 34.588C40.122 34.3 40.308 33.976 40.404 33.616ZM44.8989 26.038V23.86H46.8789V26.038H44.8989ZM44.8989 37V27.586H46.8789V37H44.8989ZM53.4883 37.18C52.5043 37.18 51.6463 36.958 50.9143 36.514C50.1943 36.058 49.6363 35.464 49.2403 34.732C48.8443 33.988 48.6463 33.178 48.6463 32.302C48.6463 31.426 48.8443 30.622 49.2403 29.89C49.6483 29.146 50.2123 28.552 50.9323 28.108C51.6643 27.652 52.5163 27.424 53.4883 27.424C54.4603 27.424 55.3063 27.652 56.0263 28.108C56.7583 28.552 57.3223 29.146 57.7183 29.89C58.1263 30.622 58.3303 31.426 58.3303 32.302C58.3303 33.178 58.1323 33.988 57.7363 34.732C57.3403 35.464 56.7763 36.058 56.0443 36.514C55.3243 36.958 54.4723 37.18 53.4883 37.18ZM50.6803 32.32C50.6803 32.92 50.8063 33.46 51.0583 33.94C51.3103 34.42 51.6463 34.798 52.0663 35.074C52.4863 35.35 52.9603 35.488 53.4883 35.488C54.0043 35.488 54.4723 35.35 54.8923 35.074C55.3243 34.786 55.6663 34.402 55.9183 33.922C56.1703 33.442 56.2963 32.902 56.2963 32.302C56.2963 31.702 56.1703 31.162 55.9183 30.682C55.6663 30.202 55.3243 29.824 54.8923 29.548C54.4723 29.26 54.0043 29.116 53.4883 29.116C52.9723 29.116 52.4983 29.26 52.0663 29.548C51.6463 29.824 51.3103 30.208 51.0583 30.7C50.8063 31.18 50.6803 31.72 50.6803 32.32Z" fill="#EEEEEE"/>
</svg>
